<svg width="24" height="24" viewBox="0 0 24 24" fill="none" xmlns="http://www.w3.org/2000/svg" class="Hawkins-Icon Hawkins-Icon-Standard"><path fill-rule="evenodd" clip-rule="evenodd" d="M3 9V12H2.99798H2.975H2.95201H2.92903H2.90606H2.88309H2.86012H2.83716H2.8142H2.79124H2.76829H2.74535H2.72241H2.69947H2.67653H2.6536H2.63068H2.60776H2.58484H2.56192H2.53901H2.51611H2.49321H2.47031H2.44742H2.42453H2.40164H2.37876H2.35589H2.33302H2.31015H2.28728H2.26442H2.24157H2.21872H2.19587H2.17303H2.15019H2.12735H2.10452H2.0817H2.05888H2.03606H2.01324H1.99043H1.96763H1.94483H1.92203H1.89924H1.87645H1.85367H1.83089H1.80811H1.78534H1.76257H1.73981H1.71705H1.69429H1.67154H1.6488H1.62606H1.60332H1.58058H1.55786H1.53513H1.51241H1.48969H1.46698H1.44427H1.42157H1.39887H1.37618H1.35349H1.3308H1.30812H1.28544H1.26277H1.2401H1.21743H1.19477H1.17211H1.14946H1.12682H1.10417H1.08153H1.0589H1.03627H1.01364H0.99102H0.968402H0.945789H0.923181H0.900576H0.877976H0.855381H0.832789H0.810202H0.78762H0.765042H0.742468H0.719898H0.697333H0.674773H0.652216H0.629664H0.607117H0.584573H0.562035H0.5395H0.51697H0.494444H0.471923H0.449406H0.426894H0.404386H0.381882H0.359383H0.336889H0.314398H0.291912H0.269431H0.246954H0.224481H0.202013H0.179549H0.15709H0.134635H0.112185H0.089739H0.0672976H0.0448606H0.0224281H0V14H0.0224281H0.0448606H0.0672976H0.089739H0.112185H0.134635H0.15709H0.179549H0.202013H0.224481H0.246954H0.269431H0.291912H0.314398H0.336889H0.359383H0.381882H0.404386H0.426894H0.449406H0.471923H0.494444H0.51697H0.5395H0.562035H0.584573H0.607117H0.629664H0.652216H0.674773H0.697333H0.719898H0.742468H0.765042H0.78762H0.810202H0.832789H0.855381H0.877976H0.900576H0.923181H0.945789H0.968402H0.99102H1.01364H1.03627H1.0589H1.08153H1.10417H1.12682H1.14946H1.17211H1.19477H1.21743H1.2401H1.26277H1.28544H1.30812H1.3308H1.35349H1.37618H1.39887H1.42157H1.44427H1.46698H1.48969H1.51241H1.53513H1.55786H1.58058H1.60332H1.62606H1.6488H1.67154H1.69429H1.71705H1.73981H1.76257H1.78534H1.80811H1.83089H1.85367H1.87645H1.89924H1.92203H1.94483H1.96763H1.99043H2.01324H2.03606H2.05888H2.0817H2.10452H2.12735H2.15019H2.17303H2.19587H2.21872H2.24157H2.26442H2.28728H2.31015H2.33302H2.35589H2.37876H2.40164H2.42453H2.44742H2.47031H2.49321H2.51611H2.53901H2.56192H2.58484H2.60776H2.63068H2.6536H2.67653H2.69947H2.72241H2.74535H2.76829H2.79124H2.8142H2.83716H2.86012H2.88309H2.90606H2.92903H2.95201H2.975H2.99798H3.02098H3.04397H3.06697H3.08997H3.11298H3.13599H3.15901H3.18203H3.20505H3.22808H3.25111H3.27415H3.29719H3.32023H3.34328H3.36633H3.38939H3.41245H3.43551H3.45858H3.48165H3.50473H3.52781H3.55089H3.57398H3.59707H3.62017H3.64327H3.66637H3.68948H3.71259H3.73571H3.75883H3.78195H3.79082L9.50511 16.5L3.59918 19.0838L4.40082 20.9162L12 17.5915L19.5992 20.9162L20.4008 19.0838L14.4949 16.5L20.2092 14H20.218H20.2412H20.2643H20.2874H20.3105H20.3336H20.3567H20.3798H20.4029H20.426H20.4491H20.4722H20.4953H20.5183H20.5414H20.5645H20.5876H20.6106H20.6337H20.6567H20.6798H20.7028H20.7259H20.7489H20.7719H20.7949H20.818H20.841H20.864H20.887H20.91H20.933H20.956H20.979H21.002H21.025H21.048H21.071H21.0939H21.1169H21.1399H21.1628H21.1858H21.2088H21.2317H21.2547H21.2776H21.3005H21.3235H21.3464H21.3693H21.3922H21.4152H21.4381H21.461H21.4839H21.5068H21.5297H21.5526H21.5755H21.5984H21.6212H21.6441H21.667H21.6899H21.7127H21.7356H21.7584H21.7813H21.8041H21.827H21.8498H21.8726H21.8955H21.9183H21.9411H21.9639H21.9868H22.0096H22.0324H22.0552H22.078H22.1008H22.1236H22.1463H22.1691H22.1919H22.2147H22.2374H22.2602H22.283H22.3057H22.3285H22.3512H22.3739H22.3967H22.4194H22.4421H22.4649H22.4876H22.5103H22.533H22.5557H22.5784H22.6011H22.6238H22.6465H22.6692H22.6919H22.7146H22.7372H22.7599H22.7826H22.8052H22.8279H22.8505H22.8732H22.8958H22.9185H22.9411H22.9637H22.9864H23.009H23.0316H23.0542H23.0768H23.0994H23.122H23.1446H23.1672H23.1898H23.2124H23.235H23.2575H23.2801H23.3027H23.3252H23.3478H23.3703H23.3929H23.4154H23.438H23.4605H23.483H23.5056H23.5281H23.5506H23.5731H23.5956H23.6181H23.6406H23.6631H23.6856H23.7081H23.7306H23.753H23.7755H23.798H23.8205H23.8429H23.8654H23.8878H23.9103H23.9327H23.9551H23.9776H24V12H23.9776H23.9551H23.9327H23.9103H23.8878H23.8654H23.8429H23.8205H23.798H23.7755H23.753H23.7306H23.7081H23.6856H23.6631H23.6406H23.6181H23.5956H23.5731H23.5506H23.5281H23.5056H23.483H23.4605H23.438H23.4154H23.3929H23.3703H23.3478H23.3252H23.3027H23.2801H23.2575H23.235H23.2124H23.1898H23.1672H23.1446H23.122H23.0994H23.0768H23.0542H23.0316H23.009H22.9864H22.9637H22.9411H22.9185H22.8958H22.8732H22.8505H22.8279H22.8052H22.7826H22.7599H22.7372H22.7146H22.6919H22.6692H22.6465H22.6238H22.6011H22.5784H22.5557H22.533H22.5103H22.4876H22.4649H22.4421H22.4194H22.3967H22.3739H22.3512H22.3285H22.3057H22.283H22.2602H22.2374H22.2147H22.1919H22.1691H22.1463H22.1236H22.1008H22.078H22.0552H22.0324H22.0096H21.9868H21.9639H21.9411H21.9183H21.8955H21.8726H21.8498H21.827H21.8041H21.7813H21.7584H21.7356H21.7127H21.6899H21.667H21.6441H21.6212H21.5984H21.5755H21.5526H21.5297H21.5068H21.4839H21.461H21.4381H21.4152H21.3922H21.3693H21.3464H21.3235H21.3005H21.2776H21.2547H21.2317H21.2088H21.1858H21.1628H21.1399H21.1169H21.0939H21.071H21.048H21.025H21.002H21V9V5V3H19V4H5V3H3V5V9ZM19 12V10H5V12H5.01313H5.03646H5.0598H5.08314H5.10648H5.12983H5.15319H5.17654H5.1999H5.22327H5.24663H5.27001H5.29338H5.31676H5.34014H5.36353H5.38692H5.41032H5.43371H5.45711H5.48052H5.50393H5.52734H5.55076H5.57418H5.5976H5.62103H5.64446H5.6679H5.69134H5.71478H5.73823H5.76168H5.78513H5.80859H5.83205H5.85552H5.87898H5.90246H5.92593H5.94941H5.9729H5.99638H6.01988H6.04337H6.06687H6.09037H6.11387H6.13738H6.1609H6.18441H6.20793H6.23146H6.25499H6.27852H6.30205H6.32559H6.34913H6.37268H6.39623H6.41978H6.44334H6.4669H6.49046H6.51403H6.5376H6.56117H6.58475H6.60833H6.63192H6.65551H6.6791H6.7027H6.7263H6.7499H6.77351H6.79712H6.82073H6.84435H6.86797H6.8916H6.91522H6.93886H6.96249H6.98613H7.00977H7.03342H7.05707H7.08072H7.10438H7.12804H7.1517H7.17537H7.19904H7.22272H7.24639H7.27008H7.29376H7.31745H7.34114H7.36484H7.38854H7.41224H7.43594H7.45965H7.48337H7.50708H7.5308H7.55453H7.57825H7.60198H7.62572H7.64945H7.6732H7.69694H7.72069H7.74444H7.76819H7.79195H7.81571H7.83948H7.86325H7.88702H7.91079H7.93457H7.95835H7.98214H8.00593H8.02972H8.05352H8.07732H8.10112H8.12493H8.14874H8.17255H8.19636H8.22018H8.24401H8.26783H8.29166H8.3155H8.33933H8.36317H8.38702H8.41086H8.43471H8.45857H8.48242H8.50628H8.53015H8.55401H8.57788H8.60176H8.62564H8.64952H8.6734H8.69729H8.72118H8.74507H8.76897H8.79287H8.81677H8.84068H8.86459H8.8885H8.91242H8.93634H8.96026H8.98419H9.00812H9.03205H9.05599H9.07993H9.10387H9.12782H9.15177H9.17572H9.19968H9.22364H9.2476H9.27157H9.29554H9.31951H9.34348H9.36746H9.39145H9.41543H9.43942H9.46341H9.48741H9.5114H9.53541H9.55941H9.58342H9.60743H9.63145H9.65546H9.67949H9.70351H9.72754H9.75157H9.7756H9.79964H9.82368H9.84772H9.87177H9.89582H9.91987H9.94393H9.96799H9.99205H10.0161H10.0402H10.0643H10.0883H10.1124H10.1365H10.1606H10.1847H10.2088H10.2329H10.2569H10.281H10.3052H10.3293H10.3534H10.3775H10.4016H10.4257H10.4498H10.474H10.4981H10.5222H10.5464H10.5705H10.5946H10.6188H10.6429H10.6671H10.6912H10.7154H10.7395H10.7637H10.7879H10.812H10.8362H10.8604H10.8846H10.9087H10.9329H10.9571H10.9813H11.0055H11.0297H11.0539H11.0781H11.1023H11.1265H11.1507H11.1749H11.1992H11.2234H11.2476H11.2718H11.2961H11.3203H11.3445H11.3688H11.393H11.4172H11.4415H11.4657H11.49H11.5143H11.5385H11.5628H11.587H11.6113H11.6356H11.6599H11.6841H11.7084H11.7327H11.757H11.7813H11.8056H11.8299H11.8542H11.8785H11.9028H11.9271H11.9514H11.9757H12H12.0243H12.0486H12.0729H12.0972H12.1215H12.1458H12.1701H12.1944H12.2187H12.243H12.2673H12.2916H12.3159H12.3401H12.3644H12.3887H12.413H12.4372H12.4615H12.4857H12.51H12.5343H12.5585H12.5828H12.607H12.6312H12.6555H12.6797H12.7039H12.7282H12.7524H12.7766H12.8008H12.8251H12.8493H12.8735H12.8977H12.9219H12.9461H12.9703H12.9945H13.0187H13.0429H13.0671H13.0913H13.1154H13.1396H13.1638H13.188H13.2121H13.2363H13.2605H13.2846H13.3088H13.3329H13.3571H13.3812H13.4054H13.4295H13.4536H13.4778H13.5019H13.526H13.5502H13.5743H13.5984H13.6225H13.6466H13.6707H13.6948H13.719H13.7431H13.7672H13.7912H13.8153H13.8394H13.8635H13.8876H13.9117H13.9357H13.9598H13.9839H14.0079H14.032H14.0561H14.0801H14.1042H14.1282H14.1523H14.1763H14.2004H14.2244H14.2484H14.2725H14.2965H14.3205H14.3445H14.3686H14.3926H14.4166H14.4406H14.4646H14.4886H14.5126H14.5366H14.5606H14.5846H14.6086H14.6325H14.6565H14.6805H14.7045H14.7284H14.7524H14.7764H14.8003H14.8243H14.8482H14.8722H14.8961H14.9201H14.944H14.9679H14.9919H15.0158H15.0397H15.0637H15.0876H15.1115H15.1354H15.1593H15.1832H15.2071H15.231H15.2549H15.2788H15.3027H15.3266H15.3505H15.3744H15.3982H15.4221H15.446H15.4699H15.4937H15.5176H15.5414H15.5653H15.5891H15.613H15.6368H15.6607H15.6845H15.7083H15.7322H15.756H15.7798H15.8036H15.8275H15.8513H15.8751H15.8989H15.9227H15.9465H15.9703H15.9941H16.0179H16.0416H16.0654H16.0892H16.113H16.1368H16.1605H16.1843H16.208H16.2318H16.2556H16.2793H16.3031H16.3268H16.3505H16.3743H16.398H16.4217H16.4455H16.4692H16.4929H16.5166H16.5403H16.5641H16.5878H16.6115H16.6352H16.6589H16.6826H16.7062H16.7299H16.7536H16.7773H16.801H16.8246H16.8483H16.872H16.8956H16.9193H16.9429H16.9666H16.9902H17.0139H17.0375H17.0611H17.0848H17.1084H17.132H17.1557H17.1793H17.2029H17.2265H17.2501H17.2737H17.2973H17.3209H17.3445H17.3681H17.3917H17.4152H17.4388H17.4624H17.486H17.5095H17.5331H17.5567H17.5802H17.6038H17.6273H17.6509H17.6744H17.6979H17.7215H17.745H17.7685H17.7921H17.8156H17.8391H17.8626H17.8861H17.9096H17.9331H17.9566H17.9801H18.0036H18.0271H18.0506H18.0741H18.0975H18.121H18.1445H18.1679H18.1914H18.2149H18.2383H18.2618H18.2852H18.3087H18.3321H18.3555H18.379H18.4024H18.4258H18.4492H18.4727H18.4961H18.5195H18.5429H18.5663H18.5897H18.6131H18.6365H18.6599H18.6832H18.7066H18.73H18.7534H18.7767H18.8001H18.8235H18.8468H18.8702H18.8935H18.9169H18.9402H18.9635H18.9869H19ZM15.2194 14H15.2071H15.1832H15.1593H15.1354H15.1115H15.0876H15.0637H15.0397H15.0158H14.9919H14.9679H14.944H14.9201H14.8961H14.8722H14.8482H14.8243H14.8003H14.7764H14.7524H14.7284H14.7045H14.6805H14.6565H14.6325H14.6086H14.5846H14.5606H14.5366H14.5126H14.4886H14.4646H14.4406H14.4166H14.3926H14.3686H14.3445H14.3205H14.2965H14.2725H14.2484H14.2244H14.2004H14.1763H14.1523H14.1282H14.1042H14.0801H14.0561H14.032H14.0079H13.9839H13.9598H13.9357H13.9117H13.8876H13.8635H13.8394H13.8153H13.7912H13.7672H13.7431H13.719H13.6948H13.6707H13.6466H13.6225H13.5984H13.5743H13.5502H13.526H13.5019H13.4778H13.4536H13.4295H13.4054H13.3812H13.3571H13.3329H13.3088H13.2846H13.2605H13.2363H13.2121H13.188H13.1638H13.1396H13.1154H13.0913H13.0671H13.0429H13.0187H12.9945H12.9703H12.9461H12.9219H12.8977H12.8735H12.8493H12.8251H12.8008H12.7766H12.7524H12.7282H12.7039H12.6797H12.6555H12.6312H12.607H12.5828H12.5585H12.5343H12.51H12.4857H12.4615H12.4372H12.413H12.3887H12.3644H12.3401H12.3159H12.2916H12.2673H12.243H12.2187H12.1944H12.1701H12.1458H12.1215H12.0972H12.0729H12.0486H12.0243H12H11.9757H11.9514H11.9271H11.9028H11.8785H11.8542H11.8299H11.8056H11.7813H11.757H11.7327H11.7084H11.6841H11.6599H11.6356H11.6113H11.587H11.5628H11.5385H11.5143H11.49H11.4657H11.4415H11.4172H11.393H11.3688H11.3445H11.3203H11.2961H11.2718H11.2476H11.2234H11.1992H11.1749H11.1507H11.1265H11.1023H11.0781H11.0539H11.0297H11.0055H10.9813H10.9571H10.9329H10.9087H10.8846H10.8604H10.8362H10.812H10.7879H10.7637H10.7395H10.7154H10.6912H10.6671H10.6429H10.6188H10.5946H10.5705H10.5464H10.5222H10.4981H10.474H10.4498H10.4257H10.4016H10.3775H10.3534H10.3293H10.3052H10.281H10.2569H10.2329H10.2088H10.1847H10.1606H10.1365H10.1124H10.0883H10.0643H10.0402H10.0161H9.99205H9.96799H9.94393H9.91987H9.89582H9.87177H9.84772H9.82368H9.79964H9.7756H9.75157H9.72754H9.70351H9.67949H9.65546H9.63145H9.60743H9.58342H9.55941H9.53541H9.5114H9.48741H9.46341H9.43942H9.41543H9.39145H9.36746H9.34348H9.31951H9.29554H9.27157H9.2476H9.22364H9.19968H9.17572H9.15177H9.12782H9.10387H9.07993H9.05599H9.03205H9.00812H8.98419H8.96026H8.93634H8.91242H8.8885H8.86459H8.84068H8.81677H8.79287H8.78061L12 15.4085L15.2194 14ZM19 6V8H5V6H19Z" fill="currentColor"></path></svg>